<svg width="16" height="17" viewBox="0 0 16 17" fill="none" xmlns="http://www.w3.org/2000/svg">
<path d="M9.33333 5.94496V4.61162C9.33333 4.258 9.19286 3.91886 8.94281 3.66881C8.69276 3.41877 8.35362 3.27829 8 3.27829H3.33333C2.97971 3.27829 2.64057 3.41877 2.39052 3.66881C2.14048 3.91886 2 4.258 2 4.61162V12.6116C2 12.9652 2.14048 13.3044 2.39052 13.5544C2.64057 13.8045 2.97971 13.945 3.33333 13.945H8C8.35362 13.945 8.69276 13.8045 8.94281 13.5544C9.19286 13.3044 9.33333 12.9652 9.33333 12.6116V11.2783M6 8.61162H14M14 8.61162L12 6.61162M14 8.61162L12 10.6116" stroke="#7D7D7D" stroke-width="1.25" stroke-linecap="round" stroke-linejoin="round"/>
</svg>
