<svg width="16" height="17" viewBox="0 0 16 17" fill="none" xmlns="http://www.w3.org/2000/svg">
<path d="M13.25 4.79161C13.4791 4.92192 13.6694 5.11093 13.8012 5.33918C13.933 5.56744 14.0016 5.8267 14 6.09028V10.9463C14 11.4856 13.7047 11.9829 13.228 12.2449L8.728 15.0916C8.5049 15.2141 8.25451 15.2783 8 15.2783C7.74549 15.2783 7.4951 15.2141 7.272 15.0916L2.772 12.2449C2.53878 12.1175 2.34408 11.9297 2.20827 11.7013C2.07247 11.4728 2.00053 11.2121 2 10.9463V6.08961C2 5.55028 2.29533 5.05361 2.772 4.79161L7.272 2.13828C7.50169 2.01164 7.75971 1.94522 8.022 1.94522C8.28429 1.94522 8.54231 2.01164 8.772 2.13828L13.272 4.79161H13.25Z" stroke="#7D7D7D" stroke-width="1.25" stroke-linecap="round" stroke-linejoin="round"/>
<path d="M6 8.61162C6 9.14206 6.21071 9.65076 6.58579 10.0258C6.96086 10.4009 7.46957 10.6116 8 10.6116C8.53043 10.6116 9.03914 10.4009 9.41421 10.0258C9.78929 9.65076 10 9.14206 10 8.61162C10 8.08119 9.78929 7.57248 9.41421 7.19741C9.03914 6.82234 8.53043 6.61162 8 6.61162C7.46957 6.61162 6.96086 6.82234 6.58579 7.19741C6.21071 7.57248 6 8.08119 6 8.61162Z" stroke="#7D7D7D" stroke-width="1.25" stroke-linecap="round" stroke-linejoin="round"/>
</svg>
